<svg width="20" height="20" viewBox="0 0 20 20" fill="none" xmlns="http://www.w3.org/2000/svg">
<path d="M11.3257 9.99999L15.0366 6.28906C15.2128 6.11325 15.3118 5.87467 15.312 5.62582C15.3123 5.37697 15.2136 5.13822 15.0378 4.9621C14.862 4.78598 14.6234 4.68692 14.3746 4.6867C14.1257 4.68648 13.887 4.78512 13.7109 4.96093L9.99992 8.67187L6.28898 4.96093C6.11286 4.78481 5.87399 4.68587 5.62492 4.68587C5.37585 4.68587 5.13698 4.78481 4.96085 4.96093C4.78473 5.13705 4.68579 5.37592 4.68579 5.62499C4.68579 5.87407 4.78473 6.11294 4.96085 6.28906L8.67179 9.99999L4.96085 13.7109C4.78473 13.8871 4.68579 14.1259 4.68579 14.375C4.68579 14.6241 4.78473 14.8629 4.96085 15.0391C5.13698 15.2152 5.37585 15.3141 5.62492 15.3141C5.87399 15.3141 6.11286 15.2152 6.28898 15.0391L9.99992 11.3281L13.7109 15.0391C13.887 15.2152 14.1258 15.3141 14.3749 15.3141C14.624 15.3141 14.8629 15.2152 15.039 15.0391C15.2151 14.8629 15.314 14.6241 15.314 14.375C15.314 14.1259 15.2151 13.8871 15.039 13.7109L11.3257 9.99999Z" fill="black"/>
</svg>
